M48
;DRILL file {KiCad 4.0.7-e2-6376~58~ubuntu16.04.1} date Mon Oct 30 16:04:52 2017
;FORMAT={-:-/ absolute / inch / decimal}
FMAT,2
INCH,TZ
T1C0.079
T2C0.138
%
G90
G05
M72
T1
X5.259Y3.438
X5.259Y3.663
X5.45Y6.085
X5.45Y6.31
X5.525Y8.24
X5.525Y8.445
X5.534Y3.438
X5.534Y3.663
X7.78Y2.52
X8.Y2.52
X8.65Y3.05
X8.66Y2.79
X8.87Y2.79
X8.87Y3.05
X9.974Y4.133
X9.974Y4.358
X9.974Y5.208
X9.974Y5.433
X10.004Y7.723
X10.005Y7.5
T2
X7.4009Y2.965
T0
M30
