M48
;DRILL file {KiCad 4.0.7-e2-6376~58~ubuntu16.04.1} date Mon Oct  9 13:28:58 2017
;FORMAT={-:-/ absolute / inch / decimal}
FMAT,2
INCH,TZ
T1C0.016
T2C0.031
T3C0.035
T4C0.039
T5C0.043
T6C0.060
T7C0.060
T8C0.087
%
G90
G05
M72
T1
X4.69Y5.8
X4.714Y7.993
X5.84Y6.09
X5.84Y6.56
X5.845Y5.805
X5.899Y7.993
X6.Y3.84
X6.29Y7.57
X6.39Y4.17
X6.4Y4.95
X6.84Y7.59
X6.84Y7.79
X7.04Y3.61
X7.04Y3.9
X7.51Y7.79
X7.83Y3.35
X8.29Y3.66
X8.57Y3.34
T2
X4.674Y4.993
X4.674Y5.163
X4.674Y5.343
X4.684Y7.173
X4.684Y7.373
X4.684Y7.533
X4.824Y5.493
X4.824Y5.893
X4.85Y7.68
X4.85Y8.08
X5.004Y5.493
X5.004Y5.893
X5.03Y7.68
X5.03Y8.08
X5.0556Y6.093
X5.064Y3.1655
X5.074Y3.963
X5.074Y4.993
X5.074Y5.163
X5.074Y5.343
X5.084Y7.173
X5.084Y7.373
X5.084Y7.533
X5.1006Y8.298
X5.154Y6.093
X5.1624Y3.1655
X5.1724Y3.963
X5.184Y5.503
X5.184Y5.903
X5.199Y7.683
X5.199Y8.083
X5.199Y8.298
X5.214Y5.053
X5.214Y5.353
X5.2156Y4.843
X5.224Y7.233
X5.224Y7.533
X5.2256Y7.003
X5.3015Y3.0905
X5.304Y3.238
X5.314Y4.843
X5.314Y5.053
X5.314Y5.353
X5.319Y3.888
X5.32Y4.03
X5.324Y7.003
X5.324Y7.233
X5.324Y7.533
X5.324Y7.683
X5.324Y8.083
X5.334Y5.503
X5.334Y5.903
X5.414Y4.5046
X5.414Y4.603
X5.414Y5.053
X5.414Y5.353
X5.424Y6.6646
X5.424Y6.763
X5.424Y7.233
X5.424Y7.533
X5.514Y5.053
X5.514Y5.353
X5.524Y4.7261
X5.524Y4.923
X5.524Y7.233
X5.524Y7.533
X5.564Y6.9061
X5.564Y7.103
X5.64Y5.915
X5.644Y4.523
X5.644Y4.923
X5.647Y5.049
X5.647Y5.449
X5.647Y5.619
X5.647Y5.7174
X5.67Y8.08
X5.67Y8.48
X5.674Y6.703
X5.674Y7.103
X5.674Y7.233
X5.674Y7.633
X5.674Y7.813
X5.674Y7.9114
X5.7015Y3.0905
X5.704Y3.238
X5.719Y3.888
X5.72Y4.03
X5.84Y5.36
X5.88Y7.54
X5.9384Y5.36
X5.9784Y7.54
X6.04Y5.915
X6.16Y3.99
X6.16Y4.0687
X6.16Y4.1475
X6.16Y4.2262
X6.16Y4.305
X6.16Y4.3837
X6.16Y4.4624
X6.16Y4.5412
X6.16Y4.6199
X6.16Y4.6987
X6.16Y6.49
X6.16Y6.5687
X6.16Y6.6475
X6.16Y6.7262
X6.16Y6.805
X6.16Y6.8837
X6.16Y6.9624
X6.16Y7.0412
X6.16Y7.1199
X6.16Y7.1987
X6.2387Y3.99
X6.2387Y4.0687
X6.2387Y4.1475
X6.2387Y4.2262
X6.2387Y4.305
X6.2387Y4.3837
X6.2387Y4.4624
X6.2387Y4.5412
X6.2387Y4.6199
X6.2387Y4.6987
X6.2387Y6.49
X6.2387Y6.5687
X6.2387Y6.6475
X6.2387Y6.7262
X6.2387Y6.805
X6.2387Y6.8837
X6.2387Y6.9624
X6.2387Y7.0412
X6.2387Y7.1199
X6.2387Y7.1987
X6.435Y2.87
X6.435Y2.9684
X6.5531Y3.19
X6.75Y3.19
X6.849Y8.108
X6.849Y8.248
X7.249Y8.108
X7.249Y8.248
X7.249Y8.358
X7.249Y8.5549
X7.489Y8.108
X7.489Y8.248
X7.86Y3.99
X7.86Y4.0687
X7.86Y4.1475
X7.86Y4.2262
X7.86Y4.305
X7.86Y4.3837
X7.86Y4.4624
X7.86Y4.5412
X7.86Y4.6199
X7.86Y4.6987
X7.86Y6.49
X7.86Y6.5687
X7.86Y6.6475
X7.86Y6.7262
X7.86Y6.805
X7.86Y6.8837
X7.86Y6.9624
X7.86Y7.0412
X7.86Y7.1199
X7.86Y7.1987
X7.889Y8.108
X7.889Y8.248
X7.889Y8.358
X7.889Y8.5549
X7.9387Y3.99
X7.9387Y4.0687
X7.9387Y4.1475
X7.9387Y4.2262
X7.9387Y4.305
X7.9387Y4.3837
X7.9387Y4.4624
X7.9387Y4.5412
X7.9387Y4.6199
X7.9387Y4.6987
X7.9387Y6.49
X7.9387Y6.5687
X7.9387Y6.6475
X7.9387Y6.7262
X7.9387Y6.805
X7.9387Y6.8837
X7.9387Y6.9624
X7.9387Y7.0412
X7.9387Y7.1199
X7.9387Y7.1987
X8.161Y2.822
X8.161Y3.222
X8.301Y2.822
X8.301Y3.222
X8.3306Y5.368
X8.429Y5.368
X8.429Y5.583
X8.429Y5.983
X8.441Y2.822
X8.441Y3.222
X8.4506Y4.078
X8.4856Y7.463
X8.549Y3.468
X8.549Y3.868
X8.549Y4.078
X8.574Y5.063
X8.574Y5.463
X8.574Y5.583
X8.574Y5.983
X8.584Y6.873
X8.584Y7.273
X8.584Y7.463
X8.6731Y6.1
X8.699Y3.468
X8.699Y3.868
X8.699Y3.988
X8.699Y4.388
X8.724Y6.873
X8.724Y7.273
X8.724Y7.403
X8.724Y7.803
X8.729Y5.063
X8.729Y5.2599
X8.7931Y3.35
X8.854Y6.7455
X8.854Y7.1455
X8.859Y4.1911
X8.859Y4.388
X8.864Y7.6061
X8.864Y7.803
X8.87Y6.1
X8.879Y4.548
X8.879Y4.848
X8.879Y5.058
X8.879Y5.458
X8.879Y5.578
X8.879Y5.978
X8.894Y7.963
X8.894Y8.263
X8.979Y4.548
X8.979Y4.848
X8.989Y3.468
X8.989Y3.868
X8.989Y3.988
X8.989Y4.388
X8.99Y3.35
X8.994Y6.5486
X8.994Y6.7455
X8.994Y6.873
X8.994Y7.273
X8.994Y7.403
X8.994Y7.803
X8.994Y7.963
X8.994Y8.263
X9.02Y5.57
X9.02Y5.97
X9.079Y4.548
X9.079Y4.848
X9.079Y5.258
X9.079Y5.4549
X9.094Y7.963
X9.094Y8.263
X9.14Y3.47
X9.14Y3.87
X9.179Y3.9911
X9.179Y4.188
X9.179Y4.548
X9.179Y4.848
X9.194Y7.4061
X9.194Y7.603
X9.194Y7.963
X9.194Y8.263
X9.344Y5.023
X9.349Y4.548
X9.374Y7.963
X9.4424Y5.023
X9.4474Y4.548
X9.4724Y7.963
T3
X8.211Y2.602
X8.261Y2.602
X8.311Y2.602
X8.361Y2.602
T4
X6.385Y2.555
X6.485Y2.555
X6.745Y2.865
X6.745Y2.965
X6.745Y3.065
T5
X6.8481Y8.4158
X6.8481Y8.593
X7.104Y8.4158
X7.104Y8.593
X7.4931Y8.4108
X7.4931Y8.588
X7.749Y8.4108
X7.749Y8.588
T6
X6.815Y2.555
X7.015Y2.555
X7.215Y2.555
T7
X4.624Y4.653
X4.624Y6.853
X4.6265Y3.5655
X4.7894Y4.8341
X4.7894Y7.0341
X4.7919Y3.7466
X4.8957Y4.5506
X4.8957Y6.7506
X4.8982Y3.4631
X4.935Y4.4483
X4.935Y6.6483
X4.9375Y3.3608
X5.0689Y4.8144
X5.0689Y7.0144
X5.0714Y3.7269
X9.7041Y4.6466
X9.7051Y7.9686
X9.838Y5.0127
X9.839Y8.3347
X9.8773Y4.9104
X9.8783Y8.2324
X9.9836Y4.6269
X9.9846Y7.9489
X10.149Y4.808
X10.15Y8.13
T8
X4.85Y2.7
X4.85Y8.3
X9.85Y2.7
X9.85Y8.55
T0
M30
