%FSLAX45Y45*%
G04 Gerber Fmt 4.5, Leading zero omitted, Abs format (unit mm)*
G04 Created by KiCad (PCBNEW 4.0.7-e2-6376~58~ubuntu16.04.1) date Mon Oct  9 13:29:06 2017*
%MOMM*%
%LPD*%
G01*
G04 APERTURE LIST*
%ADD10C,0.127000*%
%ADD11C,0.150000*%
%ADD12C,0.200000*%
%ADD13C,0.300000*%
G04 APERTURE END LIST*
D10*
D11*
X25958800Y-6096000D02*
X25908000Y-6096000D01*
X25958800Y-6121400D02*
X25958800Y-6096000D01*
X25958800Y-22352000D02*
X25908000Y-22352000D01*
X11607800Y-6096000D02*
X11582400Y-6096000D01*
X11607800Y-22352000D02*
X11582400Y-22352000D01*
X25908000Y-22352000D02*
X25882600Y-22352000D01*
X25958800Y-20015200D02*
X25958800Y-22352000D01*
X25882600Y-6096000D02*
X25908000Y-6096000D01*
X11607800Y-22352000D02*
X25882600Y-22352000D01*
X25882600Y-6096000D02*
X20116800Y-6096000D01*
X25958800Y-20015200D02*
X25958800Y-6121400D01*
X11582400Y-6096000D02*
X11582400Y-6604000D01*
X20116800Y-6096000D02*
X11607800Y-6096000D01*
X11582400Y-9779000D02*
X11582400Y-6604000D01*
X11582400Y-9779000D02*
X11582400Y-22352000D01*
D12*
X12142800Y-16105200D02*
X12342800Y-16305200D01*
X12342800Y-16105200D02*
X12142800Y-16305200D01*
X12244400Y-21769400D02*
X12444400Y-21969400D01*
X12444400Y-21769400D02*
X12244400Y-21969400D01*
X12727000Y-16105200D02*
X12927000Y-16305200D01*
X12927000Y-16105200D02*
X12727000Y-16305200D01*
X12854000Y-21769400D02*
X13054000Y-21969400D01*
X13054000Y-21769400D02*
X12854000Y-21969400D01*
X13257860Y-8632520D02*
X13457860Y-8832520D01*
X13457860Y-8632520D02*
X13257860Y-8832520D01*
X13257860Y-9204020D02*
X13457860Y-9404020D01*
X13457860Y-9204020D02*
X13257860Y-9404020D01*
X13956360Y-8632520D02*
X14156360Y-8832520D01*
X14156360Y-8632520D02*
X13956360Y-8832520D01*
X13956360Y-9204020D02*
X14156360Y-9404020D01*
X14156360Y-9204020D02*
X13956360Y-9404020D01*
X19661200Y-6300800D02*
X19861200Y-6500800D01*
X19861200Y-6300800D02*
X19661200Y-6500800D01*
X20220000Y-6300800D02*
X20420000Y-6500800D01*
X20420000Y-6300800D02*
X20220000Y-6500800D01*
X21883700Y-7304100D02*
X22083700Y-7504100D01*
X22083700Y-7304100D02*
X21883700Y-7504100D01*
X21883700Y-7913700D02*
X22083700Y-8113700D01*
X22083700Y-7913700D02*
X21883700Y-8113700D01*
X22432340Y-7296480D02*
X22632340Y-7496480D01*
X22632340Y-7296480D02*
X22432340Y-7496480D01*
X22432340Y-7906080D02*
X22632340Y-8106080D01*
X22632340Y-7906080D02*
X22432340Y-8106080D01*
X25233960Y-10397820D02*
X25433960Y-10597820D01*
X25433960Y-10397820D02*
X25233960Y-10597820D01*
X25233960Y-10969320D02*
X25433960Y-11169320D01*
X25433960Y-10969320D02*
X25233960Y-11169320D01*
X25233960Y-13128320D02*
X25433960Y-13328320D01*
X25433960Y-13128320D02*
X25233960Y-13328320D01*
X25233960Y-13699820D02*
X25433960Y-13899820D01*
X25433960Y-13699820D02*
X25233960Y-13899820D01*
X25310160Y-19516420D02*
X25510160Y-19716420D01*
X25510160Y-19516420D02*
X25310160Y-19716420D01*
X25312700Y-18950000D02*
X25512700Y-19150000D01*
X25512700Y-18950000D02*
X25312700Y-19150000D01*
X18973300Y-7531100D02*
G75*
G03X18973300Y-7531100I-175000J0D01*
G01*
D13*
X11846328Y-22825214D02*
X11846328Y-22525214D01*
X11917757Y-22525214D01*
X11960614Y-22539500D01*
X11989186Y-22568071D01*
X12003471Y-22596643D01*
X12017757Y-22653786D01*
X12017757Y-22696643D01*
X12003471Y-22753786D01*
X11989186Y-22782357D01*
X11960614Y-22810929D01*
X11917757Y-22825214D01*
X11846328Y-22825214D01*
X12146328Y-22825214D02*
X12146328Y-22625214D01*
X12146328Y-22682357D02*
X12160614Y-22653786D01*
X12174900Y-22639500D01*
X12203471Y-22625214D01*
X12232043Y-22625214D01*
X12332043Y-22825214D02*
X12332043Y-22625214D01*
X12332043Y-22525214D02*
X12317757Y-22539500D01*
X12332043Y-22553786D01*
X12346328Y-22539500D01*
X12332043Y-22525214D01*
X12332043Y-22553786D01*
X12517757Y-22825214D02*
X12489186Y-22810929D01*
X12474900Y-22782357D01*
X12474900Y-22525214D01*
X12674900Y-22825214D02*
X12646328Y-22810929D01*
X12632043Y-22782357D01*
X12632043Y-22525214D01*
X13017757Y-22825214D02*
X13017757Y-22525214D01*
X13117757Y-22739500D01*
X13217757Y-22525214D01*
X13217757Y-22825214D01*
X13489186Y-22825214D02*
X13489186Y-22668071D01*
X13474900Y-22639500D01*
X13446328Y-22625214D01*
X13389186Y-22625214D01*
X13360614Y-22639500D01*
X13489186Y-22810929D02*
X13460614Y-22825214D01*
X13389186Y-22825214D01*
X13360614Y-22810929D01*
X13346328Y-22782357D01*
X13346328Y-22753786D01*
X13360614Y-22725214D01*
X13389186Y-22710929D01*
X13460614Y-22710929D01*
X13489186Y-22696643D01*
X13632043Y-22625214D02*
X13632043Y-22925214D01*
X13632043Y-22639500D02*
X13660614Y-22625214D01*
X13717757Y-22625214D01*
X13746328Y-22639500D01*
X13760614Y-22653786D01*
X13774900Y-22682357D01*
X13774900Y-22768071D01*
X13760614Y-22796643D01*
X13746328Y-22810929D01*
X13717757Y-22825214D01*
X13660614Y-22825214D01*
X13632043Y-22810929D01*
X13903471Y-22796643D02*
X13917757Y-22810929D01*
X13903471Y-22825214D01*
X13889186Y-22810929D01*
X13903471Y-22796643D01*
X13903471Y-22825214D01*
X13903471Y-22639500D02*
X13917757Y-22653786D01*
X13903471Y-22668071D01*
X13889186Y-22653786D01*
X13903471Y-22639500D01*
X13903471Y-22668071D01*
X11374900Y-23219500D02*
X11574900Y-23419500D01*
X11574900Y-23219500D02*
X11374900Y-23419500D01*
X11832043Y-23183786D02*
X11846328Y-23169500D01*
X11874900Y-23155214D01*
X11946328Y-23155214D01*
X11974900Y-23169500D01*
X11989186Y-23183786D01*
X12003471Y-23212357D01*
X12003471Y-23240929D01*
X11989186Y-23283786D01*
X11817757Y-23455214D01*
X12003471Y-23455214D01*
X12132043Y-23426643D02*
X12146328Y-23440929D01*
X12132043Y-23455214D01*
X12117757Y-23440929D01*
X12132043Y-23426643D01*
X12132043Y-23455214D01*
X12332043Y-23155214D02*
X12360614Y-23155214D01*
X12389186Y-23169500D01*
X12403471Y-23183786D01*
X12417757Y-23212357D01*
X12432043Y-23269500D01*
X12432043Y-23340929D01*
X12417757Y-23398071D01*
X12403471Y-23426643D01*
X12389186Y-23440929D01*
X12360614Y-23455214D01*
X12332043Y-23455214D01*
X12303471Y-23440929D01*
X12289186Y-23426643D01*
X12274900Y-23398071D01*
X12260614Y-23340929D01*
X12260614Y-23269500D01*
X12274900Y-23212357D01*
X12289186Y-23183786D01*
X12303471Y-23169500D01*
X12332043Y-23155214D01*
X12617757Y-23155214D02*
X12646328Y-23155214D01*
X12674900Y-23169500D01*
X12689186Y-23183786D01*
X12703471Y-23212357D01*
X12717757Y-23269500D01*
X12717757Y-23340929D01*
X12703471Y-23398071D01*
X12689186Y-23426643D01*
X12674900Y-23440929D01*
X12646328Y-23455214D01*
X12617757Y-23455214D01*
X12589186Y-23440929D01*
X12574900Y-23426643D01*
X12560614Y-23398071D01*
X12546328Y-23340929D01*
X12546328Y-23269500D01*
X12560614Y-23212357D01*
X12574900Y-23183786D01*
X12589186Y-23169500D01*
X12617757Y-23155214D01*
X12846328Y-23455214D02*
X12846328Y-23255214D01*
X12846328Y-23283786D02*
X12860614Y-23269500D01*
X12889186Y-23255214D01*
X12932043Y-23255214D01*
X12960614Y-23269500D01*
X12974900Y-23298071D01*
X12974900Y-23455214D01*
X12974900Y-23298071D02*
X12989186Y-23269500D01*
X13017757Y-23255214D01*
X13060614Y-23255214D01*
X13089186Y-23269500D01*
X13103471Y-23298071D01*
X13103471Y-23455214D01*
X13246328Y-23455214D02*
X13246328Y-23255214D01*
X13246328Y-23283786D02*
X13260614Y-23269500D01*
X13289186Y-23255214D01*
X13332043Y-23255214D01*
X13360614Y-23269500D01*
X13374900Y-23298071D01*
X13374900Y-23455214D01*
X13374900Y-23298071D02*
X13389186Y-23269500D01*
X13417757Y-23255214D01*
X13460614Y-23255214D01*
X13489186Y-23269500D01*
X13503471Y-23298071D01*
X13503471Y-23455214D01*
X14089186Y-23140929D02*
X13832043Y-23526643D01*
X14474900Y-23155214D02*
X14503471Y-23155214D01*
X14532043Y-23169500D01*
X14546328Y-23183786D01*
X14560614Y-23212357D01*
X14574900Y-23269500D01*
X14574900Y-23340929D01*
X14560614Y-23398071D01*
X14546328Y-23426643D01*
X14532043Y-23440929D01*
X14503471Y-23455214D01*
X14474900Y-23455214D01*
X14446328Y-23440929D01*
X14432043Y-23426643D01*
X14417757Y-23398071D01*
X14403471Y-23340929D01*
X14403471Y-23269500D01*
X14417757Y-23212357D01*
X14432043Y-23183786D01*
X14446328Y-23169500D01*
X14474900Y-23155214D01*
X14703471Y-23426643D02*
X14717757Y-23440929D01*
X14703471Y-23455214D01*
X14689186Y-23440929D01*
X14703471Y-23426643D01*
X14703471Y-23455214D01*
X14903471Y-23155214D02*
X14932043Y-23155214D01*
X14960614Y-23169500D01*
X14974900Y-23183786D01*
X14989185Y-23212357D01*
X15003471Y-23269500D01*
X15003471Y-23340929D01*
X14989185Y-23398071D01*
X14974900Y-23426643D01*
X14960614Y-23440929D01*
X14932043Y-23455214D01*
X14903471Y-23455214D01*
X14874900Y-23440929D01*
X14860614Y-23426643D01*
X14846328Y-23398071D01*
X14832043Y-23340929D01*
X14832043Y-23269500D01*
X14846328Y-23212357D01*
X14860614Y-23183786D01*
X14874900Y-23169500D01*
X14903471Y-23155214D01*
X15103471Y-23155214D02*
X15303471Y-23155214D01*
X15174900Y-23455214D01*
X15432043Y-23455214D02*
X15489185Y-23455214D01*
X15517757Y-23440929D01*
X15532043Y-23426643D01*
X15560614Y-23383786D01*
X15574900Y-23326643D01*
X15574900Y-23212357D01*
X15560614Y-23183786D01*
X15546328Y-23169500D01*
X15517757Y-23155214D01*
X15460614Y-23155214D01*
X15432043Y-23169500D01*
X15417757Y-23183786D01*
X15403471Y-23212357D01*
X15403471Y-23283786D01*
X15417757Y-23312357D01*
X15432043Y-23326643D01*
X15460614Y-23340929D01*
X15517757Y-23340929D01*
X15546328Y-23326643D01*
X15560614Y-23312357D01*
X15574900Y-23283786D01*
X15689186Y-23155214D02*
X15689186Y-23212357D01*
X15803471Y-23155214D02*
X15803471Y-23212357D01*
X16246328Y-23569500D02*
X16232043Y-23555214D01*
X16203471Y-23512357D01*
X16189185Y-23483786D01*
X16174900Y-23440929D01*
X16160614Y-23369500D01*
X16160614Y-23312357D01*
X16174900Y-23240929D01*
X16189185Y-23198071D01*
X16203471Y-23169500D01*
X16232043Y-23126643D01*
X16246328Y-23112357D01*
X16346328Y-23183786D02*
X16360614Y-23169500D01*
X16389185Y-23155214D01*
X16460614Y-23155214D01*
X16489185Y-23169500D01*
X16503471Y-23183786D01*
X16517757Y-23212357D01*
X16517757Y-23240929D01*
X16503471Y-23283786D01*
X16332043Y-23455214D01*
X16517757Y-23455214D01*
X16703471Y-23155214D02*
X16732043Y-23155214D01*
X16760614Y-23169500D01*
X16774900Y-23183786D01*
X16789186Y-23212357D01*
X16803471Y-23269500D01*
X16803471Y-23340929D01*
X16789186Y-23398071D01*
X16774900Y-23426643D01*
X16760614Y-23440929D01*
X16732043Y-23455214D01*
X16703471Y-23455214D01*
X16674900Y-23440929D01*
X16660614Y-23426643D01*
X16646328Y-23398071D01*
X16632043Y-23340929D01*
X16632043Y-23269500D01*
X16646328Y-23212357D01*
X16660614Y-23183786D01*
X16674900Y-23169500D01*
X16703471Y-23155214D01*
X17160614Y-23455214D02*
X17160614Y-23155214D01*
X17289186Y-23455214D02*
X17289186Y-23298071D01*
X17274900Y-23269500D01*
X17246328Y-23255214D01*
X17203471Y-23255214D01*
X17174900Y-23269500D01*
X17160614Y-23283786D01*
X17474900Y-23455214D02*
X17446328Y-23440929D01*
X17432043Y-23426643D01*
X17417757Y-23398071D01*
X17417757Y-23312357D01*
X17432043Y-23283786D01*
X17446328Y-23269500D01*
X17474900Y-23255214D01*
X17517757Y-23255214D01*
X17546328Y-23269500D01*
X17560614Y-23283786D01*
X17574900Y-23312357D01*
X17574900Y-23398071D01*
X17560614Y-23426643D01*
X17546328Y-23440929D01*
X17517757Y-23455214D01*
X17474900Y-23455214D01*
X17746328Y-23455214D02*
X17717757Y-23440929D01*
X17703471Y-23412357D01*
X17703471Y-23155214D01*
X17974900Y-23440929D02*
X17946329Y-23455214D01*
X17889186Y-23455214D01*
X17860614Y-23440929D01*
X17846329Y-23412357D01*
X17846329Y-23298071D01*
X17860614Y-23269500D01*
X17889186Y-23255214D01*
X17946329Y-23255214D01*
X17974900Y-23269500D01*
X17989186Y-23298071D01*
X17989186Y-23326643D01*
X17846329Y-23355214D01*
X18103471Y-23440929D02*
X18132043Y-23455214D01*
X18189186Y-23455214D01*
X18217757Y-23440929D01*
X18232043Y-23412357D01*
X18232043Y-23398071D01*
X18217757Y-23369500D01*
X18189186Y-23355214D01*
X18146329Y-23355214D01*
X18117757Y-23340929D01*
X18103471Y-23312357D01*
X18103471Y-23298071D01*
X18117757Y-23269500D01*
X18146329Y-23255214D01*
X18189186Y-23255214D01*
X18217757Y-23269500D01*
X18332043Y-23569500D02*
X18346329Y-23555214D01*
X18374900Y-23512357D01*
X18389186Y-23483786D01*
X18403471Y-23440929D01*
X18417757Y-23369500D01*
X18417757Y-23312357D01*
X18403471Y-23240929D01*
X18389186Y-23198071D01*
X18374900Y-23169500D01*
X18346329Y-23126643D01*
X18332043Y-23112357D01*
X18874900Y-23569500D02*
X18860614Y-23555214D01*
X18832043Y-23512357D01*
X18817757Y-23483786D01*
X18803471Y-23440929D01*
X18789186Y-23369500D01*
X18789186Y-23312357D01*
X18803471Y-23240929D01*
X18817757Y-23198071D01*
X18832043Y-23169500D01*
X18860614Y-23126643D01*
X18874900Y-23112357D01*
X18989186Y-23255214D02*
X18989186Y-23455214D01*
X18989186Y-23283786D02*
X19003471Y-23269500D01*
X19032043Y-23255214D01*
X19074900Y-23255214D01*
X19103471Y-23269500D01*
X19117757Y-23298071D01*
X19117757Y-23455214D01*
X19303471Y-23455214D02*
X19274900Y-23440929D01*
X19260614Y-23426643D01*
X19246329Y-23398071D01*
X19246329Y-23312357D01*
X19260614Y-23283786D01*
X19274900Y-23269500D01*
X19303471Y-23255214D01*
X19346329Y-23255214D01*
X19374900Y-23269500D01*
X19389186Y-23283786D01*
X19403471Y-23312357D01*
X19403471Y-23398071D01*
X19389186Y-23426643D01*
X19374900Y-23440929D01*
X19346329Y-23455214D01*
X19303471Y-23455214D01*
X19489186Y-23255214D02*
X19603471Y-23255214D01*
X19532043Y-23155214D02*
X19532043Y-23412357D01*
X19546329Y-23440929D01*
X19574900Y-23455214D01*
X19603471Y-23455214D01*
X19932043Y-23255214D02*
X19932043Y-23555214D01*
X19932043Y-23269500D02*
X19960614Y-23255214D01*
X20017757Y-23255214D01*
X20046329Y-23269500D01*
X20060614Y-23283786D01*
X20074900Y-23312357D01*
X20074900Y-23398071D01*
X20060614Y-23426643D01*
X20046329Y-23440929D01*
X20017757Y-23455214D01*
X19960614Y-23455214D01*
X19932043Y-23440929D01*
X20246329Y-23455214D02*
X20217757Y-23440929D01*
X20203471Y-23412357D01*
X20203471Y-23155214D01*
X20489186Y-23455214D02*
X20489186Y-23298071D01*
X20474900Y-23269500D01*
X20446329Y-23255214D01*
X20389186Y-23255214D01*
X20360614Y-23269500D01*
X20489186Y-23440929D02*
X20460614Y-23455214D01*
X20389186Y-23455214D01*
X20360614Y-23440929D01*
X20346329Y-23412357D01*
X20346329Y-23383786D01*
X20360614Y-23355214D01*
X20389186Y-23340929D01*
X20460614Y-23340929D01*
X20489186Y-23326643D01*
X20589186Y-23255214D02*
X20703471Y-23255214D01*
X20632043Y-23155214D02*
X20632043Y-23412357D01*
X20646329Y-23440929D01*
X20674900Y-23455214D01*
X20703471Y-23455214D01*
X20917757Y-23440929D02*
X20889186Y-23455214D01*
X20832043Y-23455214D01*
X20803472Y-23440929D01*
X20789186Y-23412357D01*
X20789186Y-23298071D01*
X20803472Y-23269500D01*
X20832043Y-23255214D01*
X20889186Y-23255214D01*
X20917757Y-23269500D01*
X20932043Y-23298071D01*
X20932043Y-23326643D01*
X20789186Y-23355214D01*
X21189186Y-23455214D02*
X21189186Y-23155214D01*
X21189186Y-23440929D02*
X21160614Y-23455214D01*
X21103472Y-23455214D01*
X21074900Y-23440929D01*
X21060614Y-23426643D01*
X21046329Y-23398071D01*
X21046329Y-23312357D01*
X21060614Y-23283786D01*
X21074900Y-23269500D01*
X21103472Y-23255214D01*
X21160614Y-23255214D01*
X21189186Y-23269500D01*
X21303472Y-23569500D02*
X21317757Y-23555214D01*
X21346329Y-23512357D01*
X21360614Y-23483786D01*
X21374900Y-23440929D01*
X21389186Y-23369500D01*
X21389186Y-23312357D01*
X21374900Y-23240929D01*
X21360614Y-23198071D01*
X21346329Y-23169500D01*
X21317757Y-23126643D01*
X21303472Y-23112357D01*
X11574900Y-23715500D02*
G75*
G03X11574900Y-23715500I-175000J0D01*
G01*
X11817757Y-23551214D02*
X12003471Y-23551214D01*
X11903471Y-23665500D01*
X11946328Y-23665500D01*
X11974900Y-23679786D01*
X11989186Y-23694071D01*
X12003471Y-23722643D01*
X12003471Y-23794071D01*
X11989186Y-23822643D01*
X11974900Y-23836929D01*
X11946328Y-23851214D01*
X11860614Y-23851214D01*
X11832043Y-23836929D01*
X11817757Y-23822643D01*
X12132043Y-23822643D02*
X12146328Y-23836929D01*
X12132043Y-23851214D01*
X12117757Y-23836929D01*
X12132043Y-23822643D01*
X12132043Y-23851214D01*
X12417757Y-23551214D02*
X12274900Y-23551214D01*
X12260614Y-23694071D01*
X12274900Y-23679786D01*
X12303471Y-23665500D01*
X12374900Y-23665500D01*
X12403471Y-23679786D01*
X12417757Y-23694071D01*
X12432043Y-23722643D01*
X12432043Y-23794071D01*
X12417757Y-23822643D01*
X12403471Y-23836929D01*
X12374900Y-23851214D01*
X12303471Y-23851214D01*
X12274900Y-23836929D01*
X12260614Y-23822643D01*
X12617757Y-23551214D02*
X12646328Y-23551214D01*
X12674900Y-23565500D01*
X12689186Y-23579786D01*
X12703471Y-23608357D01*
X12717757Y-23665500D01*
X12717757Y-23736929D01*
X12703471Y-23794071D01*
X12689186Y-23822643D01*
X12674900Y-23836929D01*
X12646328Y-23851214D01*
X12617757Y-23851214D01*
X12589186Y-23836929D01*
X12574900Y-23822643D01*
X12560614Y-23794071D01*
X12546328Y-23736929D01*
X12546328Y-23665500D01*
X12560614Y-23608357D01*
X12574900Y-23579786D01*
X12589186Y-23565500D01*
X12617757Y-23551214D01*
X12846328Y-23851214D02*
X12846328Y-23651214D01*
X12846328Y-23679786D02*
X12860614Y-23665500D01*
X12889186Y-23651214D01*
X12932043Y-23651214D01*
X12960614Y-23665500D01*
X12974900Y-23694071D01*
X12974900Y-23851214D01*
X12974900Y-23694071D02*
X12989186Y-23665500D01*
X13017757Y-23651214D01*
X13060614Y-23651214D01*
X13089186Y-23665500D01*
X13103471Y-23694071D01*
X13103471Y-23851214D01*
X13246328Y-23851214D02*
X13246328Y-23651214D01*
X13246328Y-23679786D02*
X13260614Y-23665500D01*
X13289186Y-23651214D01*
X13332043Y-23651214D01*
X13360614Y-23665500D01*
X13374900Y-23694071D01*
X13374900Y-23851214D01*
X13374900Y-23694071D02*
X13389186Y-23665500D01*
X13417757Y-23651214D01*
X13460614Y-23651214D01*
X13489186Y-23665500D01*
X13503471Y-23694071D01*
X13503471Y-23851214D01*
X14089186Y-23536929D02*
X13832043Y-23922643D01*
X14474900Y-23551214D02*
X14503471Y-23551214D01*
X14532043Y-23565500D01*
X14546328Y-23579786D01*
X14560614Y-23608357D01*
X14574900Y-23665500D01*
X14574900Y-23736929D01*
X14560614Y-23794071D01*
X14546328Y-23822643D01*
X14532043Y-23836929D01*
X14503471Y-23851214D01*
X14474900Y-23851214D01*
X14446328Y-23836929D01*
X14432043Y-23822643D01*
X14417757Y-23794071D01*
X14403471Y-23736929D01*
X14403471Y-23665500D01*
X14417757Y-23608357D01*
X14432043Y-23579786D01*
X14446328Y-23565500D01*
X14474900Y-23551214D01*
X14703471Y-23822643D02*
X14717757Y-23836929D01*
X14703471Y-23851214D01*
X14689186Y-23836929D01*
X14703471Y-23822643D01*
X14703471Y-23851214D01*
X15003471Y-23851214D02*
X14832043Y-23851214D01*
X14917757Y-23851214D02*
X14917757Y-23551214D01*
X14889185Y-23594071D01*
X14860614Y-23622643D01*
X14832043Y-23636929D01*
X15103471Y-23551214D02*
X15289185Y-23551214D01*
X15189185Y-23665500D01*
X15232043Y-23665500D01*
X15260614Y-23679786D01*
X15274900Y-23694071D01*
X15289185Y-23722643D01*
X15289185Y-23794071D01*
X15274900Y-23822643D01*
X15260614Y-23836929D01*
X15232043Y-23851214D01*
X15146328Y-23851214D01*
X15117757Y-23836929D01*
X15103471Y-23822643D01*
X15460614Y-23679786D02*
X15432043Y-23665500D01*
X15417757Y-23651214D01*
X15403471Y-23622643D01*
X15403471Y-23608357D01*
X15417757Y-23579786D01*
X15432043Y-23565500D01*
X15460614Y-23551214D01*
X15517757Y-23551214D01*
X15546328Y-23565500D01*
X15560614Y-23579786D01*
X15574900Y-23608357D01*
X15574900Y-23622643D01*
X15560614Y-23651214D01*
X15546328Y-23665500D01*
X15517757Y-23679786D01*
X15460614Y-23679786D01*
X15432043Y-23694071D01*
X15417757Y-23708357D01*
X15403471Y-23736929D01*
X15403471Y-23794071D01*
X15417757Y-23822643D01*
X15432043Y-23836929D01*
X15460614Y-23851214D01*
X15517757Y-23851214D01*
X15546328Y-23836929D01*
X15560614Y-23822643D01*
X15574900Y-23794071D01*
X15574900Y-23736929D01*
X15560614Y-23708357D01*
X15546328Y-23694071D01*
X15517757Y-23679786D01*
X15689186Y-23551214D02*
X15689186Y-23608357D01*
X15803471Y-23551214D02*
X15803471Y-23608357D01*
X16246328Y-23965500D02*
X16232043Y-23951214D01*
X16203471Y-23908357D01*
X16189185Y-23879786D01*
X16174900Y-23836929D01*
X16160614Y-23765500D01*
X16160614Y-23708357D01*
X16174900Y-23636929D01*
X16189185Y-23594071D01*
X16203471Y-23565500D01*
X16232043Y-23522643D01*
X16246328Y-23508357D01*
X16517757Y-23851214D02*
X16346328Y-23851214D01*
X16432043Y-23851214D02*
X16432043Y-23551214D01*
X16403471Y-23594071D01*
X16374900Y-23622643D01*
X16346328Y-23636929D01*
X16874900Y-23851214D02*
X16874900Y-23551214D01*
X17003471Y-23851214D02*
X17003471Y-23694071D01*
X16989186Y-23665500D01*
X16960614Y-23651214D01*
X16917757Y-23651214D01*
X16889186Y-23665500D01*
X16874900Y-23679786D01*
X17189186Y-23851214D02*
X17160614Y-23836929D01*
X17146328Y-23822643D01*
X17132043Y-23794071D01*
X17132043Y-23708357D01*
X17146328Y-23679786D01*
X17160614Y-23665500D01*
X17189186Y-23651214D01*
X17232043Y-23651214D01*
X17260614Y-23665500D01*
X17274900Y-23679786D01*
X17289186Y-23708357D01*
X17289186Y-23794071D01*
X17274900Y-23822643D01*
X17260614Y-23836929D01*
X17232043Y-23851214D01*
X17189186Y-23851214D01*
X17460614Y-23851214D02*
X17432043Y-23836929D01*
X17417757Y-23808357D01*
X17417757Y-23551214D01*
X17689186Y-23836929D02*
X17660614Y-23851214D01*
X17603471Y-23851214D01*
X17574900Y-23836929D01*
X17560614Y-23808357D01*
X17560614Y-23694071D01*
X17574900Y-23665500D01*
X17603471Y-23651214D01*
X17660614Y-23651214D01*
X17689186Y-23665500D01*
X17703471Y-23694071D01*
X17703471Y-23722643D01*
X17560614Y-23751214D01*
X17803471Y-23965500D02*
X17817757Y-23951214D01*
X17846329Y-23908357D01*
X17860614Y-23879786D01*
X17874900Y-23836929D01*
X17889186Y-23765500D01*
X17889186Y-23708357D01*
X17874900Y-23636929D01*
X17860614Y-23594071D01*
X17846329Y-23565500D01*
X17817757Y-23522643D01*
X17803471Y-23508357D01*
X18346329Y-23965500D02*
X18332043Y-23951214D01*
X18303471Y-23908357D01*
X18289186Y-23879786D01*
X18274900Y-23836929D01*
X18260614Y-23765500D01*
X18260614Y-23708357D01*
X18274900Y-23636929D01*
X18289186Y-23594071D01*
X18303471Y-23565500D01*
X18332043Y-23522643D01*
X18346329Y-23508357D01*
X18460614Y-23651214D02*
X18460614Y-23851214D01*
X18460614Y-23679786D02*
X18474900Y-23665500D01*
X18503471Y-23651214D01*
X18546329Y-23651214D01*
X18574900Y-23665500D01*
X18589186Y-23694071D01*
X18589186Y-23851214D01*
X18774900Y-23851214D02*
X18746329Y-23836929D01*
X18732043Y-23822643D01*
X18717757Y-23794071D01*
X18717757Y-23708357D01*
X18732043Y-23679786D01*
X18746329Y-23665500D01*
X18774900Y-23651214D01*
X18817757Y-23651214D01*
X18846329Y-23665500D01*
X18860614Y-23679786D01*
X18874900Y-23708357D01*
X18874900Y-23794071D01*
X18860614Y-23822643D01*
X18846329Y-23836929D01*
X18817757Y-23851214D01*
X18774900Y-23851214D01*
X18960614Y-23651214D02*
X19074900Y-23651214D01*
X19003471Y-23551214D02*
X19003471Y-23808357D01*
X19017757Y-23836929D01*
X19046329Y-23851214D01*
X19074900Y-23851214D01*
X19403471Y-23651214D02*
X19403471Y-23951214D01*
X19403471Y-23665500D02*
X19432043Y-23651214D01*
X19489186Y-23651214D01*
X19517757Y-23665500D01*
X19532043Y-23679786D01*
X19546329Y-23708357D01*
X19546329Y-23794071D01*
X19532043Y-23822643D01*
X19517757Y-23836929D01*
X19489186Y-23851214D01*
X19432043Y-23851214D01*
X19403471Y-23836929D01*
X19717757Y-23851214D02*
X19689186Y-23836929D01*
X19674900Y-23808357D01*
X19674900Y-23551214D01*
X19960614Y-23851214D02*
X19960614Y-23694071D01*
X19946329Y-23665500D01*
X19917757Y-23651214D01*
X19860614Y-23651214D01*
X19832043Y-23665500D01*
X19960614Y-23836929D02*
X19932043Y-23851214D01*
X19860614Y-23851214D01*
X19832043Y-23836929D01*
X19817757Y-23808357D01*
X19817757Y-23779786D01*
X19832043Y-23751214D01*
X19860614Y-23736929D01*
X19932043Y-23736929D01*
X19960614Y-23722643D01*
X20060614Y-23651214D02*
X20174900Y-23651214D01*
X20103472Y-23551214D02*
X20103472Y-23808357D01*
X20117757Y-23836929D01*
X20146329Y-23851214D01*
X20174900Y-23851214D01*
X20389186Y-23836929D02*
X20360614Y-23851214D01*
X20303472Y-23851214D01*
X20274900Y-23836929D01*
X20260614Y-23808357D01*
X20260614Y-23694071D01*
X20274900Y-23665500D01*
X20303472Y-23651214D01*
X20360614Y-23651214D01*
X20389186Y-23665500D01*
X20403472Y-23694071D01*
X20403472Y-23722643D01*
X20260614Y-23751214D01*
X20660614Y-23851214D02*
X20660614Y-23551214D01*
X20660614Y-23836929D02*
X20632043Y-23851214D01*
X20574900Y-23851214D01*
X20546329Y-23836929D01*
X20532043Y-23822643D01*
X20517757Y-23794071D01*
X20517757Y-23708357D01*
X20532043Y-23679786D01*
X20546329Y-23665500D01*
X20574900Y-23651214D01*
X20632043Y-23651214D01*
X20660614Y-23665500D01*
X20774900Y-23965500D02*
X20789186Y-23951214D01*
X20817757Y-23908357D01*
X20832043Y-23879786D01*
X20846329Y-23836929D01*
X20860614Y-23765500D01*
X20860614Y-23708357D01*
X20846329Y-23636929D01*
X20832043Y-23594071D01*
X20817757Y-23565500D01*
X20789186Y-23522643D01*
X20774900Y-23508357D01*
M02*
