M48
;DRILL file {KiCad 4.0.7-e2-6376~58~ubuntu16.04.1} date Mon Oct  9 13:28:58 2017
;FORMAT={-:-/ absolute / inch / decimal}
FMAT,2
INCH,TZ
T1C0.079
T2C0.138
%
G90
G05
M72
T1
X4.82Y6.38
X4.86Y8.61
X5.05Y6.38
X5.1Y8.61
X5.259Y3.438
X5.259Y3.663
X5.534Y3.438
X5.534Y3.663
X7.78Y2.52
X8.Y2.52
X8.655Y2.915
X8.655Y3.155
X8.871Y2.912
X8.871Y3.152
X9.974Y4.133
X9.974Y4.358
X9.974Y5.208
X9.974Y5.433
X10.004Y7.723
X10.005Y7.5
T2
X7.4009Y2.965
T0
M30
